<svg width="30" height="30" viewBox="0 0 30 30" fill="none" xmlns="http://www.w3.org/2000/svg">
<path d="M6.39095 4.29598H28.6931L25.6589 14.9159H8.02481M27.176 20.9844H8.97042L5.93616 1.26172H1.38477M10.4876 27.053C10.4876 27.8909 9.8083 28.5701 8.97042 28.5701C8.13254 28.5701 7.45329 27.8909 7.45329 27.053C7.45329 26.215 8.13254 25.5358 8.97042 25.5358C9.8083 25.5358 10.4876 26.215 10.4876 27.053ZM27.176 27.053C27.176 27.8909 26.4968 28.5701 25.6589 28.5701C24.821 28.5701 24.1417 27.8909 24.1417 27.053C24.1417 26.215 24.821 25.5358 25.6589 25.5358C26.4968 25.5358 27.176 26.215 27.176 27.053Z" stroke="white" stroke-width="2.32121" stroke-linecap="round" stroke-linejoin="round"/>
</svg>
