<svg width="1202" height="660" viewBox="0 0 1202 660" fill="none" xmlns="http://www.w3.org/2000/svg">
<path d="M1202 610C1202 637.614 1179.61 660 1152 660L621.592 660C589.521 660 565.743 630.233 572.828 598.954L699.676 38.9541C704.837 16.1728 725.082 2.05977e-05 748.441 2.25783e-05L1152 5.67957e-05C1179.61 5.91371e-05 1202 22.3859 1202 50.0001L1202 610Z" fill="#EDFAEA"/>
<path d="M0 50C0 22.3858 22.3858 0 50 0H616.408C648.479 0 672.257 29.7671 665.172 61.0459L538.324 621.046C533.163 643.827 512.917 660 489.559 660H50C22.3858 660 0 637.614 0 610V50Z" fill="#EDFAEA"/>
</svg>
