<svg viewBox="0 0 154 58" fill="none" xmlns="http://www.w3.org/2000/svg">
<path d="M64.6104 37C64.4314 37 64.2849 36.9467 64.1709 36.84C64.057 36.7181 64 36.581 64 36.4286V21.5714C64 21.4038 64.057 21.2667 64.1709 21.16C64.2849 21.0533 64.4314 21 64.6104 21H67.7603C67.9394 21 68.0859 21.0533 68.1998 21.16C68.33 21.2667 68.3952 21.4038 68.3952 21.5714V33.3429H72.1555V21.5714C72.1555 21.4038 72.2124 21.2667 72.3264 21.16C72.4566 21.0533 72.6031 21 72.7659 21H75.9402C76.1192 21 76.2657 21.0533 76.3797 21.16C76.4936 21.2667 76.5506 21.4038 76.5506 21.5714V33.3429H80.3109V21.5714C80.3109 21.4038 80.3679 21.2667 80.4818 21.16C80.6121 21.0533 80.7586 21 80.9214 21H84.0712C84.2503 21 84.3968 21.0533 84.5107 21.16C84.641 21.2667 84.7061 21.4038 84.7061 21.5714V36.4286C84.7061 36.581 84.641 36.7181 84.5107 36.84C84.3968 36.9467 84.2503 37 84.0712 37H64.6104Z" fill="black"/>
<path d="M88.7418 37C88.5628 37 88.4163 36.9467 88.3023 36.84C88.1884 36.7181 88.1314 36.581 88.1314 36.4286V21.5714C88.1314 21.4038 88.1884 21.2667 88.3023 21.16C88.4163 21.0533 88.5628 21 88.7418 21H100.145C100.324 21 100.47 21.0533 100.584 21.16C100.698 21.2667 100.755 21.4038 100.755 21.5714V23.72C100.755 23.8876 100.698 24.0248 100.584 24.1314C100.47 24.2381 100.324 24.2914 100.145 24.2914H92.3556V27.3771H99.6076C99.7867 27.3771 99.9332 27.4381 100.047 27.56C100.161 27.6667 100.218 27.8038 100.218 27.9714V29.96C100.218 30.1124 100.161 30.2495 100.047 30.3714C99.9332 30.4781 99.7867 30.5314 99.6076 30.5314H92.3556V33.7086H100.34C100.519 33.7086 100.666 33.7619 100.78 33.8686C100.894 33.9752 100.951 34.1124 100.951 34.28V36.4286C100.951 36.581 100.894 36.7181 100.78 36.84C100.666 36.9467 100.519 37 100.34 37H88.7418Z" fill="black"/>
<path d="M115.178 37C114.999 37 114.852 36.9467 114.738 36.84C114.625 36.7181 114.568 36.581 114.568 36.4286V24.6571H110.026V26.7371C110.026 28.581 109.928 30.1505 109.733 31.4457C109.554 32.7257 109.22 33.7771 108.732 34.6C108.26 35.4076 107.584 36.0019 106.705 36.3829C105.842 36.7638 104.735 36.9695 103.384 37C103.205 37 103.051 36.9467 102.92 36.84C102.79 36.7181 102.725 36.5733 102.725 36.4057V34.0057C102.725 33.6705 102.929 33.4724 103.336 33.4114C103.791 33.3352 104.174 33.1219 104.483 32.7714C104.792 32.4057 105.045 31.9181 105.24 31.3086C105.435 30.6838 105.574 29.9448 105.655 29.0914C105.737 28.2229 105.777 27.2629 105.777 26.2114V21.5714C105.777 21.4038 105.834 21.2667 105.948 21.16C106.078 21.0533 106.233 21 106.412 21H118.328C118.507 21 118.653 21.0533 118.767 21.16C118.898 21.2667 118.963 21.4038 118.963 21.5714V36.4286C118.963 36.581 118.898 36.7181 118.767 36.84C118.653 36.9467 118.507 37 118.328 37H115.178Z" fill="black"/>
<path d="M122.96 37C122.781 37 122.634 36.9467 122.52 36.84C122.406 36.7181 122.349 36.581 122.349 36.4286V21.5714C122.349 21.4038 122.406 21.2667 122.52 21.16C122.634 21.0533 122.781 21 122.96 21H134.68C134.859 21 135.006 21.0533 135.12 21.16C135.234 21.2667 135.291 21.4038 135.291 21.5714V23.8571C135.291 24.0248 135.234 24.1695 135.12 24.2914C135.006 24.3981 134.859 24.4514 134.68 24.4514H126.744V27.1486H130.139C132.092 27.1486 133.63 27.5829 134.753 28.4514C135.877 29.32 136.438 30.5086 136.438 32.0171C136.438 32.7181 136.3 33.3733 136.023 33.9829C135.746 34.5771 135.339 35.1029 134.802 35.56C134.281 36.0019 133.63 36.3524 132.849 36.6114C132.084 36.8705 131.18 37 130.139 37H122.96ZM126.744 34.0286H129.748C130.22 34.0286 130.611 33.9371 130.92 33.7543C131.245 33.5562 131.49 33.3048 131.652 33C131.815 32.68 131.897 32.3448 131.897 31.9943C131.897 31.461 131.709 31.0038 131.335 30.6229C130.977 30.2419 130.448 30.0514 129.748 30.0514H126.744V34.0286Z" fill="black"/>
<path d="M139.008 37C138.829 37 138.682 36.9467 138.568 36.84C138.454 36.7181 138.397 36.5733 138.397 36.4057V21.5714C138.397 21.4038 138.454 21.2667 138.568 21.16C138.698 21.0533 138.845 21 139.008 21H142.157C142.337 21 142.483 21.0533 142.597 21.16C142.727 21.2667 142.792 21.4038 142.792 21.5714V30.76L149.727 21.4343C149.808 21.3124 149.914 21.2133 150.044 21.1371C150.175 21.0457 150.346 21 150.557 21H153.39C153.552 21 153.691 21.0533 153.805 21.16C153.935 21.2667 154 21.4038 154 21.5714V36.4286C154 36.581 153.935 36.7181 153.805 36.84C153.691 36.9467 153.552 37 153.39 37H150.24C150.061 37 149.906 36.9467 149.776 36.84C149.662 36.7181 149.605 36.581 149.605 36.4286V27.56L142.67 36.5657C142.605 36.6571 142.507 36.7562 142.377 36.8629C142.263 36.9543 142.084 37 141.84 37H139.008Z" fill="black"/>
<path d="M26.9907 55C25.9864 55 24.9822 54.7477 24.0895 54.2432L5.9012 44.0631C4.11584 43.0541 3 41.1802 3 39.1802V18.8198C3 16.8198 4.11584 14.9459 5.9012 13.9369L24.0895 3.75676C25.8749 2.74775 28.1066 2.74775 29.9105 3.75676L48.0988 13.9369C49.8842 14.9459 51 16.8198 51 18.8198V39.1802C51 41.1802 49.8842 43.0541 48.0988 44.0631L29.9105 54.2432C28.9992 54.7658 27.995 55 26.9907 55Z" fill="#FCE127"/>
<path fill-rule="evenodd" clip-rule="evenodd" d="M48.0988 44.0631L29.9105 54.2432C28.9992 54.7658 27.995 55 26.9907 55C25.9864 55 24.9822 54.7477 24.0895 54.2432L5.9012 44.0631C4.11584 43.0541 3 41.1802 3 39.1802V18.8198C3 16.8198 4.11584 14.9459 5.9012 13.9369L24.0895 3.75676C25.8749 2.74775 28.1066 2.74775 29.9105 3.75676L48.0988 13.9369C49.8842 14.9459 51 16.8198 51 18.8198V39.1802C51 41.1802 49.8842 43.0541 48.0988 44.0631ZM22.6134 1.145C22.6154 1.14391 22.6173 1.14282 22.6192 1.14173C25.3242 -0.384316 28.6677 -0.375758 31.375 1.13849L49.5749 11.3252C52.2686 12.8476 54 15.7005 54 18.8198V39.1802C54 42.2995 52.2686 45.1524 49.5749 46.6748L49.564 46.6809L31.3877 56.8544C29.981 57.6572 28.4584 58 26.9907 58C25.4897 58 23.9767 57.624 22.6197 56.8586C22.6176 56.8574 22.6155 56.8562 22.6134 56.855L4.42513 46.6748C1.73136 45.1524 0 42.2995 0 39.1802V18.8198C0 15.7005 1.73135 12.8476 4.42514 11.3252L4.43595 11.3191L22.6134 1.145Z" fill="black"/>
<path fill-rule="evenodd" clip-rule="evenodd" d="M13.0766 23.4436L10.2857 25.2473C9.83215 25.5418 9.22164 25.2105 9.22164 24.6399L9.13442 21.1981L9.04721 17.7563C9.02976 17.1857 9.60539 16.8176 10.0938 17.0937L12.9545 18.7317L15.8151 20.3698C16.2861 20.6459 16.3035 21.3637 15.85 21.6582L13.0766 23.4436ZM41.2817 23.4436L44.0726 25.2473C44.5261 25.5418 45.1366 25.2105 45.1366 24.6399L45.2238 21.1981L45.311 17.7563C45.3285 17.1857 44.7528 16.8176 44.2644 17.0937L41.4038 18.7317L38.5431 20.3698C38.0721 20.6459 38.0547 21.3637 38.5082 21.6582L41.2817 23.4436ZM29.5838 42.8215H27.0739H24.5475C24.1347 42.8215 23.8705 43.1669 24.0852 43.4431L25.3401 45.118L26.5951 46.7928C26.8097 47.0691 27.3216 47.0691 27.5363 46.7928L28.7912 45.118L30.0462 43.4431C30.2608 43.1669 29.9966 42.8215 29.5838 42.8215ZM21.8931 20.999L15.349 25.0875L8.80482 29.1759C7.73173 29.8453 7.73173 31.5277 8.80482 32.197L15.349 36.2855L21.8931 40.3739C22.9662 41.0433 24.3032 40.2111 24.3032 38.8543V30.6593V22.4643C24.3208 21.1618 22.9662 20.3297 21.8931 20.999ZM20.8904 33.988C20.0108 33.988 19.2895 33.2463 19.2895 32.3417C19.2895 31.4372 20.0108 30.6955 20.8904 30.6955C21.77 30.6955 22.4912 31.4372 22.4912 32.3417C22.4736 33.2463 21.77 33.988 20.8904 33.988ZM38.6437 24.7981L45.1826 28.876C46.2725 29.5437 46.2725 31.2218 45.1826 31.9435L38.6437 36.0215L32.1048 40.0994C31.0326 40.7671 29.6967 39.919 29.6967 38.5837V30.4098V22.2358C29.6967 20.8825 31.0326 20.0525 32.1048 20.7201L38.6437 24.7981ZM31.5247 32.0157C31.5247 32.9179 32.2454 33.6577 33.1243 33.6577C34.0032 33.6577 34.7239 32.9179 34.7239 32.0157C34.7239 31.1135 34.0032 30.3737 33.1243 30.3737C32.2454 30.3737 31.5247 31.1135 31.5247 32.0157Z" fill="black"/>
</svg>
