<svg width="19" height="18" viewBox="0 0 19 18" fill="none" xmlns="http://www.w3.org/2000/svg">
<path d="M8.58251 1.85169C8.7989 1.3662 8.90714 1.12346 9.05783 1.04871C9.18869 0.983764 9.34236 0.983764 9.47322 1.04871C9.6239 1.12346 9.73215 1.3662 9.94854 1.85169L11.6722 5.71865C11.7362 5.86217 11.7682 5.93393 11.8177 5.98889C11.8615 6.03751 11.9151 6.07641 11.9748 6.10303C12.0424 6.13313 12.1205 6.14137 12.2768 6.15786L16.4872 6.60224C17.0157 6.65803 17.28 6.68592 17.3977 6.80612C17.4999 6.91052 17.5473 7.05672 17.526 7.20126C17.5015 7.36765 17.3041 7.54553 16.9093 7.90139L13.7642 10.7357C13.6475 10.8409 13.5891 10.8935 13.5522 10.9575C13.5194 11.0143 13.499 11.0772 13.4921 11.1422C13.4844 11.2158 13.5007 11.2926 13.5333 11.4464L14.4117 15.588C14.522 16.108 14.5772 16.3679 14.4992 16.5169C14.4315 16.6465 14.3071 16.7368 14.1631 16.7612C13.9973 16.7892 13.7671 16.6565 13.3066 16.3909L9.63914 14.2756C9.50304 14.1971 9.43499 14.1579 9.36264 14.1425C9.29861 14.1289 9.23243 14.1289 9.1684 14.1425C9.09606 14.1579 9.02801 14.1971 8.89191 14.2756L5.22447 16.3909C4.76403 16.6565 4.53381 16.7892 4.36798 16.7612C4.22393 16.7368 4.09957 16.6465 4.03186 16.5169C3.95391 16.3679 4.00905 16.108 4.11934 15.588L4.99777 11.4464C5.03038 11.2926 5.04668 11.2158 5.03894 11.1422C5.03209 11.0772 5.01164 11.0143 4.97893 10.9575C4.94196 10.8935 4.88359 10.8409 4.76687 10.7357L1.62182 7.90139C1.22698 7.54553 1.02955 7.36765 1.005 7.20126C0.983692 7.05672 1.03119 6.91052 1.13339 6.80612C1.25106 6.68592 1.51535 6.65803 2.04395 6.60224L6.2543 6.15786C6.41057 6.14137 6.4887 6.13313 6.55626 6.10303C6.61604 6.07641 6.66956 6.03751 6.71336 5.98889C6.76286 5.93393 6.79484 5.86217 6.85883 5.71865L8.58251 1.85169Z" fill="#868686" stroke="black" stroke-width="1.36542" stroke-linecap="round" stroke-linejoin="round"/>
</svg>
