<svg width="19" height="18" viewBox="0 0 19 18" fill="none" xmlns="http://www.w3.org/2000/svg">
<path d="M8.70653 1.85169C8.92292 1.3662 9.03117 1.12346 9.18185 1.04871C9.31271 0.983764 9.46638 0.983764 9.59725 1.04871C9.74793 1.12346 9.85617 1.3662 10.0726 1.85169L11.7962 5.71865C11.8603 5.86217 11.8922 5.93393 11.9418 5.98889C11.9855 6.03751 12.0391 6.07641 12.0988 6.10303C12.1664 6.13313 12.2445 6.14137 12.4008 6.15786L16.6112 6.60224C17.1398 6.65803 17.404 6.68592 17.5217 6.80612C17.6239 6.91052 17.6714 7.05672 17.65 7.20126C17.6256 7.36765 17.4281 7.54553 17.0333 7.90139L13.8882 10.7357C13.7715 10.8409 13.7131 10.8935 13.6762 10.9575C13.6435 11.0143 13.623 11.0772 13.6162 11.1422C13.6084 11.2158 13.6247 11.2926 13.6573 11.4464L14.5358 15.588C14.6461 16.108 14.7012 16.3679 14.6233 16.5169C14.5555 16.6465 14.4312 16.7368 14.2871 16.7612C14.1213 16.7892 13.8911 16.6565 13.4306 16.3909L9.76316 14.2756C9.62707 14.1971 9.55902 14.1579 9.48667 14.1425C9.42264 14.1289 9.35646 14.1289 9.29243 14.1425C9.22008 14.1579 9.15203 14.1971 9.01593 14.2756L5.34849 16.3909C4.88805 16.6565 4.65784 16.7892 4.49201 16.7612C4.34795 16.7368 4.22359 16.6465 4.15588 16.5169C4.07793 16.3679 4.13307 16.108 4.24336 15.588L5.1218 11.4464C5.1544 11.2926 5.1707 11.2158 5.16296 11.1422C5.15611 11.0772 5.13567 11.0143 5.10295 10.9575C5.06598 10.8935 5.00762 10.8409 4.8909 10.7357L1.74585 7.90139C1.351 7.54553 1.15357 7.36765 1.12903 7.20126C1.10772 7.05672 1.15521 6.91052 1.25741 6.80612C1.37508 6.68592 1.63938 6.65803 2.16797 6.60224L6.37832 6.15786C6.53459 6.14137 6.61272 6.13313 6.68028 6.10303C6.74006 6.07641 6.79358 6.03751 6.83738 5.98889C6.88688 5.93393 6.91887 5.86217 6.98285 5.71865L8.70653 1.85169Z" stroke="black" stroke-width="1.36542" stroke-linecap="round" stroke-linejoin="round" fill="transparent" />
</svg>
